<svg width="1000" height="1000" viewBox="0 0 1000 1000" fill="none" xmlns="http://www.w3.org/2000/svg">
<rect x="680" y="409.603" width="100" height="311.636" rx="50" transform="rotate(-60 680 409.603)" fill="black"/>
<rect x="949.885" y="434" width="100" height="311.636" rx="50" transform="rotate(60 949.885 434)" fill="black"/>
<rect x="319.885" y="589.818" width="100" height="311.636" rx="50" transform="rotate(120 319.885 589.818)" fill="black"/>
<rect x="50" y="565.421" width="100" height="311.636" rx="50" transform="rotate(-120 50 565.421)" fill="black"/>
<rect x="550" width="100" height="1000" rx="50" fill="black"/>
<rect x="550" y="100" width="100" height="400" rx="50" transform="rotate(-90 550 100)" fill="black"/>
<rect x="550" y="1000" width="100" height="400" rx="50" transform="rotate(-90 550 1000)" fill="black"/>
<rect x="50" y="100" width="100" height="400" rx="50" transform="rotate(-90 50 100)" fill="black"/>
<rect x="50" y="1000" width="100" height="400" rx="50" transform="rotate(-90 50 1000)" fill="black"/>
<rect x="350" width="100" height="1000" rx="50" fill="black"/>
</svg>
